<svg width="32" height="32" viewBox="0 0 32 32" fill="none" xmlns="http://www.w3.org/2000/svg">
<style>
  path { fill: black; }
  @media (prefers-color-scheme: dark) {
    path { fill: white; }
  }
</style>
<path fill-rule="evenodd" clip-rule="evenodd" d="M15.3418 10.1356C15.0405 10.44 15.0405 10.9338 15.3418 11.2382C15.643 11.5427 16.1315 11.5427 16.4328 11.2382C16.734 10.9338 16.734 10.44 16.4328 10.1356C16.1315 9.83111 15.643 9.83111 15.3418 10.1356Z"/>
<path fill-rule="evenodd" clip-rule="evenodd" d="M20.2434 17.5415C19.82 17.5415 19.4699 17.8871 19.4699 18.3232C19.4699 18.7594 19.8119 19.105 20.2434 19.105C20.6749 19.105 21.0169 18.7594 21.0169 18.3232C21.0169 17.8871 20.6749 17.5415 20.2434 17.5415Z"/>
<path fill-rule="evenodd" clip-rule="evenodd" d="M15.8874 6.69589C16.4818 6.69589 16.9703 6.21039 16.9703 5.60145C16.9703 4.99252 16.4899 4.50702 15.8874 4.50702C15.2849 4.50702 14.8045 4.99252 14.8045 5.60145C14.8045 6.21039 15.2849 6.69589 15.8874 6.69589Z"/>
<path fill-rule="evenodd" clip-rule="evenodd" d="M11.5235 22.3142C10.9292 22.3142 10.4406 22.7997 10.4406 23.4086C10.4406 24.0176 10.921 24.5031 11.5235 24.5031C12.1179 24.5031 12.6064 24.0176 12.6064 23.4086C12.6064 22.7997 12.126 22.3142 11.5235 22.3142Z"/>
<path fill-rule="evenodd" clip-rule="evenodd" d="M16.9215 24.8734C16.1888 24.0834 15.7084 22.3471 16.433 21.6394C16.5877 21.4913 16.661 21.2938 16.661 21.1046C16.661 20.9071 16.5877 20.7178 16.433 20.5697C15.684 19.8373 16.2132 18.0188 16.9867 17.2617C17.5973 16.6692 17.5973 15.7065 16.9867 15.114C16.376 14.5215 15.3908 14.5215 14.7883 15.114C14.1777 15.7065 14.1777 16.6692 14.7883 17.2617C15.5618 18.0188 16.091 19.8373 15.342 20.5697C15.1873 20.7178 15.114 20.9153 15.114 21.1046C15.114 21.3021 15.1873 21.4913 15.342 21.6394C16.0666 22.3471 15.5944 24.0834 14.8535 24.8734C14.536 25.1532 14.3324 25.5564 14.3324 26.009C14.3324 26.8483 15.0245 27.5231 15.8875 27.5231C16.7424 27.5231 17.4426 26.8401 17.4426 26.009C17.4426 25.1778 17.2391 25.1532 16.9215 24.8734Z"/>
<path fill-rule="evenodd" clip-rule="evenodd" d="M24.0619 15.221C23.7607 15.5255 23.7607 16.0192 24.0619 16.3237C24.3632 16.6281 24.8517 16.6281 25.1529 16.3237C25.4542 16.0192 25.4542 15.5255 25.1529 15.221C24.754 14.8178 24.4446 12.3985 25.3728 11.4604C25.7961 11.0325 25.7961 10.3413 25.3728 9.91339C24.9494 9.48549 24.2655 9.48549 23.8421 9.91339C23.4187 10.3413 23.4187 11.0325 23.8421 11.4604C24.7703 12.3985 24.4609 14.8178 24.0619 15.221Z"/>
<path fill-rule="evenodd" clip-rule="evenodd" d="M19.4777 12.4561C19.0543 12.884 19.0543 13.5752 19.4777 14.0031C19.9011 14.431 20.585 14.431 21.0084 14.0031C21.4317 13.5752 21.4317 12.884 21.0084 12.4561C20.0802 11.518 20.3896 9.09873 20.7885 8.69552C21.0898 8.39105 21.0898 7.89732 20.7885 7.59285C20.4873 7.28839 19.9988 7.28839 19.6975 7.59285C19.3963 7.89732 19.3963 8.39105 19.6975 8.69552C20.0965 9.09873 20.4059 11.518 19.4777 12.4561Z"/>
<path fill-rule="evenodd" clip-rule="evenodd" d="M7.71288 16.3154C8.01413 16.0109 8.01413 15.5172 7.71288 15.2127C7.41163 14.9083 6.92312 14.9083 6.62187 15.2127C6.32062 15.5172 6.32062 16.0109 6.62187 16.3154C7.02082 16.7186 7.33021 19.1379 6.40204 20.076C5.97866 20.5039 5.97866 21.1951 6.40204 21.623C6.82541 22.0509 7.50933 22.0509 7.93271 21.623C8.35609 21.1951 8.35609 20.5039 7.93271 20.076C7.00453 19.1379 7.31393 16.7186 7.71288 16.3154Z"/>
<path fill-rule="evenodd" clip-rule="evenodd" d="M6.89063 11.7319C7.4687 11.8883 8.06306 11.5426 8.21775 10.9584C8.47015 10.0039 10.0904 8.87651 11.2547 9.1892C11.8327 9.34555 12.4271 8.99994 12.5818 8.41569C12.7365 7.83144 12.3945 7.23074 11.8165 7.07439C11.2384 6.91804 10.644 7.26365 10.4893 7.8479C10.1799 9.0164 8.40502 9.8722 7.45242 9.6171C6.87434 9.46075 6.27999 9.80636 6.12529 10.3906C5.9706 10.9749 6.31256 11.5756 6.89063 11.7319Z"/>
<path fill-rule="evenodd" clip-rule="evenodd" d="M12.2888 14.0031C12.7122 13.5752 12.7122 12.884 12.2888 12.4561C11.8655 12.0282 11.1816 12.0282 10.7582 12.4561C10.3348 12.884 10.3348 13.5752 10.7582 14.0031C11.6049 14.8589 11.4502 16.842 10.7582 17.5415C10.3348 17.9694 10.3348 18.6606 10.7582 19.0885C11.1816 19.5164 11.8655 19.5164 12.2888 19.0885C12.7122 18.6606 12.7122 17.9694 12.2888 17.5415C11.5968 16.842 11.4421 14.8589 12.2888 13.9949V14.0031Z"/>
<path fill-rule="evenodd" clip-rule="evenodd" d="M24.8839 19.8044C24.3058 19.6481 23.7114 19.9937 23.5568 20.5779C23.3044 21.5325 21.6841 22.6598 20.5198 22.3471C19.9418 22.1908 19.3474 22.5364 19.1927 23.1207C19.038 23.7049 19.38 24.3056 19.958 24.462C20.5361 24.6183 21.1305 24.2727 21.2852 23.6884C21.5946 22.5199 23.3695 21.6641 24.3221 21.9192C24.9002 22.0756 25.4945 21.73 25.6492 21.1457C25.8039 20.5615 25.4619 19.9608 24.8839 19.8044Z"/>
</svg>
